<svg xmlns="http://www.w3.org/2000/svg" viewBox="-22 0 144 100">
  <path d="
    M 50 93
    C 22 93 12 76 12 58
    C 12 42 18 34 22 30
    L 12 6
    L 38 26
    C 42 24 46 23 50 23
    C 54 23 58 24 62 26
    L 88 6
    L 78 30
    C 82 34 88 42 88 58
    C 88 76 78 93 50 93
    Z
  "/>
  <!-- Left whiskers -->
  <line x1="13" y1="62" x2="-20" y2="57" stroke-width="2.5" stroke-linecap="round"/>
  <line x1="13" y1="70" x2="-20" y2="73" stroke-width="2.5" stroke-linecap="round"/>
  <!-- Right whiskers -->
  <line x1="87" y1="62" x2="120" y2="57" stroke-width="2.5" stroke-linecap="round"/>
  <line x1="87" y1="70" x2="120" y2="73" stroke-width="2.5" stroke-linecap="round"/>
  <style>
    path { fill: #000; }
    line { stroke: #000; }
    @media (prefers-color-scheme: dark) {
      path { fill: #fff; }
      line { stroke: #fff; }
    }
  </style>
</svg>
